<svg id="Layer_1" data-name="Layer 1" xmlns="http://www.w3.org/2000/svg" viewBox="0 0 23.66 25.94"><defs><style>.cls-1{opacity:0.15;}.cls-2{fill:#333;}</style></defs><title>website</title><g class="cls-1"><path class="cls-2" d="M5.12,14.64l-2.67.24a12,12,0,0,0,2.1,5.94L2.24,22.13l.11.16c.78-.45,1.56-.9,2.33-1.36A12,12,0,0,1,2.5,15l2.58-.26a9.84,9.84,0,0,0,1,3.42l.91-.37-.05-.11L6,18.06A9.58,9.58,0,0,1,5.12,14.64Z" transform="translate(1.54 0.61)"/><path class="cls-2" d="M2.39,22.16c-.17-.24-.33-.42-.39-.39s0,.25.2.49.36.41.41.38S2.55,22.39,2.39,22.16Z" transform="translate(1.54 0.61)"/><path class="cls-2" d="M4.7,20.83c-.15-.2-.29-.35-.35-.32s0,.22.17.43.3.34.35.31S4.84,21,4.7,20.83Z" transform="translate(1.54 0.61)"/><path class="cls-2" d="M7,17.74c-.05-.13-.14-.22-.18-.21s0,.14,0,.28S7,18,7,18,7.05,17.87,7,17.74Z" transform="translate(1.54 0.61)"/><path class="cls-2" d="M2.57,15c0-.22-.08-.4-.14-.39s-.1.19-.08.41.09.4.15.39S2.59,15.17,2.57,15Z" transform="translate(1.54 0.61)"/><path class="cls-2" d="M5.22,14.7c0-.18-.07-.33-.13-.32s-.1.15-.08.34.08.32.14.32S5.24,14.88,5.22,14.7Z" transform="translate(1.54 0.61)"/><path class="cls-2" d="M6.08,18.06C6,18,6,17.87,5.92,17.89s0,.11,0,.22.13.19.16.17S6.13,18.17,6.08,18.06Z" transform="translate(1.54 0.61)"/><path class="cls-2" d="M10.82,12.92l-2.66-.26a7.74,7.74,0,0,0,.4,3.77L6,17.27a.56.56,0,0,0,0,.12l2.58-.88a7.67,7.67,0,0,1-.44-3.75l2.58.22a5.6,5.6,0,0,0,.07,1.87l1-.19s0,0,0-.06l-.94.18A5.54,5.54,0,0,1,10.82,12.92Z" transform="translate(1.54 0.61)"/><path class="cls-2" d="M6.13,17.29C6.06,17.12,6,17,5.91,17s0,.18,0,.35.17.3.23.28S6.19,17.46,6.13,17.29Z" transform="translate(1.54 0.61)"/><path class="cls-2" d="M8.69,16.44c0-.13-.14-.23-.19-.21s-.07.14,0,.28.15.23.2.21S8.74,16.57,8.69,16.44Z" transform="translate(1.54 0.61)"/><path class="cls-2" d="M11.88,14.62c0-.07-.06-.12-.11-.11s-.08.07-.06.14.06.12.11.1S11.89,14.68,11.88,14.62Z" transform="translate(1.54 0.61)"/><path class="cls-2" d="M8.27,12.72c0-.13,0-.25-.07-.26s-.12.1-.14.24,0,.25.07.26S8.26,12.85,8.27,12.72Z" transform="translate(1.54 0.61)"/><path class="cls-2" d="M10.91,13c0-.1,0-.18-.08-.19s-.12.07-.13.17,0,.18.08.19S10.9,13.05,10.91,13Z" transform="translate(1.54 0.61)"/><path class="cls-2" d="M10.93,14.78c0-.06-.06-.11-.09-.1s-.06.06-.05.12.06.11.09.1S10.94,14.84,10.93,14.78Z" transform="translate(1.54 0.61)"/><path class="cls-2" d="M7.86,9.57l-2.41-1a12.1,12.1,0,0,0-1.28,5.21l-2.7.05V14l2.74-.08A11.94,11.94,0,0,1,5.42,8.7l2.36,1a9.68,9.68,0,0,0-.88,2.86l1,.1s0-.07,0-.1l-1-.1A10.24,10.24,0,0,1,7.86,9.57Z" transform="translate(1.54 0.61)"/><path class="cls-2" d="M1.58,13.9c0-.24,0-.43-.1-.43s-.11.19-.12.43.06.43.12.42S1.58,14.13,1.58,13.9Z" transform="translate(1.54 0.61)"/><path class="cls-2" d="M4.28,13.84c0-.2,0-.35-.1-.36s-.11.16-.11.36,0,.36.11.35S4.28,14,4.28,13.84Z" transform="translate(1.54 0.61)"/><path class="cls-2" d="M8,12.56c0-.11,0-.21,0-.21s-.1.08-.12.2,0,.21,0,.21S7.94,12.68,8,12.56Z" transform="translate(1.54 0.61)"/><path class="cls-2" d="M5.52,8.66c.09-.18.12-.34.06-.36s-.17.1-.25.28-.11.35-.06.37S5.43,8.84,5.52,8.66Z" transform="translate(1.54 0.61)"/><path class="cls-2" d="M7.93,9.65C8,9.51,8,9.38,8,9.36s-.16.07-.23.21-.07.28,0,.3S7.86,9.8,7.93,9.65Z" transform="translate(1.54 0.61)"/><path class="cls-2" d="M7,12.43c0-.09,0-.18,0-.18s-.08.07-.09.17,0,.18,0,.18S7,12.53,7,12.43Z" transform="translate(1.54 0.61)"/><path class="cls-2" d="M7.81-.4s0,0,0,0A18.54,18.54,0,0,0,4.47,2.36l-.82-.71A18.59,18.59,0,0,0-1.45,13l1.64,0A14.07,14.07,0,0,0,4.46,24.12l0,0A14.08,14.08,0,0,1,.24,12.89l-1.64-.06a18.57,18.57,0,0,1,4.94-11l.84.71A18.2,18.2,0,0,1,7.81-.4Z" transform="translate(1.54 0.61)"/><path class="cls-2" d="M4.09,23.71s.08.25.3.47.44.36.48.32-.11-.24-.32-.45S4.13,23.68,4.09,23.71Z" transform="translate(1.54 0.61)"/><path class="cls-2" d="M.25,12.57c-.06,0-.13.2-.15.46s0,.46.09.47S.3,13.29.32,13,.3,12.58.25,12.57Z" transform="translate(1.54 0.61)"/><path class="cls-2" d="M8.08-.6s-.2,0-.38.15-.31.26-.29.3.2,0,.38-.16S8.11-.56,8.08-.6Z" transform="translate(1.54 0.61)"/><path class="cls-2" d="M-1.39,12.48c-.06,0-.13.22-.15.5s0,.51.08.51.12-.22.14-.5S-1.33,12.49-1.39,12.48Z" transform="translate(1.54 0.61)"/><path class="cls-2" d="M4,1.31s-.24.09-.44.3-.32.42-.27.46.23-.11.43-.32S4,1.34,4,1.31Z" transform="translate(1.54 0.61)"/><path class="cls-2" d="M4.67,2.17s-.15.05-.26.18-.19.24-.16.27.14-.06.26-.19S4.69,2.19,4.67,2.17Z" transform="translate(1.54 0.61)"/><path class="cls-2" d="M12.45,6.37l0,0a10.27,10.27,0,0,0-1.71,1.44c-.27-.24-.54-.48-.82-.71a10.07,10.07,0,0,0-2.78,6.19l1.64,0a7.09,7.09,0,0,0,2.14,5.55l0,0a7,7,0,0,1-2.12-5.6l-1.64-.07a10.07,10.07,0,0,1,2.69-6l.83.71A9.43,9.43,0,0,1,12.45,6.37Z" transform="translate(1.54 0.61)"/><path class="cls-2" d="M10.72,18.64s0,.15.12.26.23.17.27.13,0-.16-.11-.26S10.77,18.6,10.72,18.64Z" transform="translate(1.54 0.61)"/><path class="cls-2" d="M8.8,13.06c-.06,0-.11.1-.13.22s0,.24.1.24.11-.1.12-.23S8.86,13.06,8.8,13.06Z" transform="translate(1.54 0.61)"/><path class="cls-2" d="M12.59,6.26s-.13,0-.22,0-.15.14-.12.18.12,0,.22,0S12.62,6.3,12.59,6.26Z" transform="translate(1.54 0.61)"/><path class="cls-2" d="M7.17,13c-.06,0-.12.11-.13.27s0,.27.09.28.11-.13.12-.28S7.22,13,7.17,13Z" transform="translate(1.54 0.61)"/><path class="cls-2" d="M10.1,6.88s-.17,0-.28.14-.15.24-.11.28.17,0,.27-.14S10.14,6.92,10.1,6.88Z" transform="translate(1.54 0.61)"/><path class="cls-2" d="M10.83,7.68s-.1,0-.16.08-.08.13-.06.15.1,0,.16-.07S10.86,7.71,10.83,7.68Z" transform="translate(1.54 0.61)"/><path class="cls-2" d="M16.16,1.92s0,0,0,0a11.4,11.4,0,0,0-3,.69l-.39-1a13.88,13.88,0,0,0-7,5.86l1.41.74a10.78,10.78,0,0,0-1.43,7.68h0A10.66,10.66,0,0,1,7.26,8.08c-.46-.26-.94-.51-1.4-.76a13.94,13.94,0,0,1,6.75-5.68c.14.34.27.68.41,1A11.33,11.33,0,0,1,16.16,1.92Z" transform="translate(1.54 0.61)"/><path class="cls-2" d="M5.69,15.52c-.06,0-.09.16-.05.33s.12.31.18.3.07-.17,0-.34S5.75,15.51,5.69,15.52Z" transform="translate(1.54 0.61)"/><path class="cls-2" d="M7.39,7.89s-.17.07-.26.23-.13.3-.08.33.17-.08.26-.23S7.44,7.92,7.39,7.89Z" transform="translate(1.54 0.61)"/><path class="cls-2" d="M16.42,1.88s-.15-.08-.31-.06-.29.06-.28.11.14.07.3.05S16.42,1.92,16.42,1.88Z" transform="translate(1.54 0.61)"/><path class="cls-2" d="M6,7.1c-.06,0-.19.08-.29.26s-.15.34-.1.37.18-.1.28-.27S6,7.12,6,7.1Z" transform="translate(1.54 0.61)"/><path class="cls-2" d="M13.07,1.46c0-.06-.19,0-.39,0s-.34.18-.32.23.2,0,.4,0S13.09,1.51,13.07,1.46Z" transform="translate(1.54 0.61)"/><path class="cls-2" d="M13.31,2.5s-.12,0-.23,0-.2.11-.18.14.11,0,.23,0S13.32,2.54,13.31,2.5Z" transform="translate(1.54 0.61)"/><path class="cls-2" d="M15.3,7.73l0,0a5.85,5.85,0,0,0-1.44.71c-.21-.3-.41-.6-.62-.89a8,8,0,0,0-3.14,4.05l1.57.42a5,5,0,0,0,.26,4l0,0a5,5,0,0,1-.24-4l-1.56-.44a7.88,7.88,0,0,1,3-3.91c.21.29.41.59.62.89A6.38,6.38,0,0,1,15.3,7.73Z" transform="translate(1.54 0.61)"/><path class="cls-2" d="M11.85,15.8s-.06.11,0,.19.13.14.19.11.05-.11,0-.19S11.91,15.77,11.85,15.8Z" transform="translate(1.54 0.61)"/><path class="cls-2" d="M11.72,11.83c-.05,0-.12,0-.15.13s0,.16,0,.18.12-.05.15-.13S11.78,11.85,11.72,11.83Z" transform="translate(1.54 0.61)"/><path class="cls-2" d="M15.41,7.67s-.09-.06-.17,0-.13.09-.11.13.09.05.17,0S15.42,7.72,15.41,7.67Z" transform="translate(1.54 0.61)"/><path class="cls-2" d="M10.17,11.37c-.05,0-.13.05-.16.16s0,.21,0,.23.13-.07.17-.17S10.23,11.38,10.17,11.37Z" transform="translate(1.54 0.61)"/><path class="cls-2" d="M13.4,7.42s-.14,0-.24,0-.15.16-.11.21.13,0,.23,0S13.43,7.47,13.4,7.42Z" transform="translate(1.54 0.61)"/><path class="cls-2" d="M13.93,8.36s-.08,0-.14,0a.11.11,0,0,0-.06.11s.09,0,.14,0S14,8.39,13.93,8.36Z" transform="translate(1.54 0.61)"/><path class="cls-2" d="M21.91,6.56l0,0a10,10,0,0,0-2.47-1l.27-1a9.33,9.33,0,0,0-7,.83l.77,1.36A8.66,8.66,0,0,0,9.67,10.8h0a8.63,8.63,0,0,1,3.84-4.19L12.8,5.25a9.3,9.3,0,0,1,6.8-.8c-.08.34-.17.69-.25,1A10,10,0,0,1,21.91,6.56Z" transform="translate(1.54 0.61)"/><path class="cls-2" d="M9.78,10.6s-.14.06-.19.17,0,.23,0,.25.13-.06.18-.18S9.84,10.62,9.78,10.6Z" transform="translate(1.54 0.61)"/><path class="cls-2" d="M13.69,6.53s-.14,0-.26,0-.18.16-.15.2.14,0,.25,0S13.71,6.58,13.69,6.53Z" transform="translate(1.54 0.61)"/><path class="cls-2" d="M22.11,6.66s-.05-.14-.18-.21-.25-.1-.28-.06.06.13.19.2S22.08,6.69,22.11,6.66Z" transform="translate(1.54 0.61)"/><path class="cls-2" d="M13,5.14s-.16,0-.3,0-.22.18-.19.23.16,0,.29,0S13,5.19,13,5.14Z" transform="translate(1.54 0.61)"/><path class="cls-2" d="M20,4.54s-.12-.14-.29-.19-.33,0-.34,0,.12.13.29.17S20,4.59,20,4.54Z" transform="translate(1.54 0.61)"/><path class="cls-2" d="M19.61,5.52s-.06-.08-.15-.1-.18,0-.19,0,.06.08.15.11S19.61,5.56,19.61,5.52Z" transform="translate(1.54 0.61)"/><path class="cls-2" d="M13.32,3.2v0a12.93,12.93,0,0,0-1.2.54c-.07-.15-.15-.29-.23-.43A12.22,12.22,0,0,0,8.84,5.52L9.35,6A11.92,11.92,0,0,0,7.24,8.84h0A11.52,11.52,0,0,1,9.41,6l-.52-.5a12.6,12.6,0,0,1,3-2.15l.23.43A11.48,11.48,0,0,1,13.32,3.2Z" transform="translate(1.54 0.61)"/><path class="cls-2" d="M7.31,8.72s-.07,0-.11.1,0,.13,0,.15.07,0,.1-.11S7.33,8.73,7.31,8.72Z" transform="translate(1.54 0.61)"/><path class="cls-2" d="M9.47,5.9s-.08,0-.14.07-.08.12-.06.13.07,0,.13-.07S9.49,5.92,9.47,5.9Z" transform="translate(1.54 0.61)"/><path class="cls-2" d="M13.42,3.16s-.07,0-.13,0-.11.06-.1.08.07,0,.13,0S13.43,3.18,13.42,3.16Z" transform="translate(1.54 0.61)"/><path class="cls-2" d="M9,5.41s-.09,0-.15.07-.09.12-.07.14.08,0,.14-.07S9,5.43,9,5.41Z" transform="translate(1.54 0.61)"/><path class="cls-2" d="M12,3.23s-.09,0-.16,0-.13.1-.12.12.09,0,.16,0S12,3.25,12,3.23Z" transform="translate(1.54 0.61)"/><path class="cls-2" d="M12.2,3.68s0,0-.1,0-.07,0-.06.07.05,0,.09,0S12.21,3.7,12.2,3.68Z" transform="translate(1.54 0.61)"/><path class="cls-2" d="M12.82,7.43a0,0,0,0,1,0,0A7.25,7.25,0,0,1,13.58,7c.08.14.16.28.25.42A7.23,7.23,0,0,1,16,6.6c0-.23-.08-.46-.13-.69a7.7,7.7,0,0,1,2.75,0v0a7.92,7.92,0,0,0-2.79,0c.05.23.09.46.14.69a7.16,7.16,0,0,0-2.15.77c-.08-.14-.17-.28-.24-.42A5.79,5.79,0,0,0,12.82,7.43Z" transform="translate(1.54 0.61)"/><path class="cls-2" d="M18.54,5.89s0,.06.11.07.11,0,.12,0-.05-.06-.11-.07S18.54,5.86,18.54,5.89Z" transform="translate(1.54 0.61)"/><path class="cls-2" d="M15.79,5.92s.05,0,.11,0,.1,0,.1-.07-.06,0-.11,0S15.78,5.9,15.79,5.92Z" transform="translate(1.54 0.61)"/><path class="cls-2" d="M12.77,7.48s.05,0,.09,0,.05-.06,0-.08-.05,0-.08,0S12.76,7.46,12.77,7.48Z" transform="translate(1.54 0.61)"/><path class="cls-2" d="M15.93,6.61s.05,0,.11,0,.09,0,.08-.06-.05,0-.1,0S15.93,6.59,15.93,6.61Z" transform="translate(1.54 0.61)"/><path class="cls-2" d="M13.74,7.43s.06,0,.11,0,.07-.06.06-.08-.06,0-.11,0S13.73,7.41,13.74,7.43Z" transform="translate(1.54 0.61)"/><path class="cls-2" d="M13.53,7s0,0,.07,0,.05,0,0,0,0,0-.07,0S13.52,7,13.53,7Z" transform="translate(1.54 0.61)"/><path class="cls-2" d="M1.37,19h0a13.17,13.17,0,0,1-.78-2.82l.8-.13a14.19,14.19,0,0,1,.91-7.51L1.24,8.18A18,18,0,0,1,6.11,1.36l0,0a18,18,0,0,0-4.92,7l1.1.36A14,14,0,0,0,1.38,16l-.8.12A13,13,0,0,0,1.37,19Z" transform="translate(1.54 0.61)"/><path class="cls-2" d="M5.85,1.58s.16-.05.3-.17.24-.25.22-.27-.17,0-.32.16S5.82,1.55,5.85,1.58Z" transform="translate(1.54 0.61)"/><path class="cls-2" d="M1.1,8.51s.13-.12.2-.29.09-.32.05-.34-.13.12-.2.29S1.06,8.49,1.1,8.51Z" transform="translate(1.54 0.61)"/><path class="cls-2" d="M1.47,19.23s0-.13,0-.27-.13-.25-.16-.24,0,.13,0,.28S1.44,19.24,1.47,19.23Z" transform="translate(1.54 0.61)"/><path class="cls-2" d="M2.2,8.85s.12-.11.19-.27.08-.3,0-.31-.12.1-.19.26S2.16,8.84,2.2,8.85Z" transform="translate(1.54 0.61)"/><path class="cls-2" d="M1.46,16.35s.05-.14,0-.31-.08-.31-.12-.3-.06.15,0,.32S1.42,16.36,1.46,16.35Z" transform="translate(1.54 0.61)"/><path class="cls-2" d="M.65,16.37s0-.1,0-.21S.61,16,.58,16s0,.1,0,.21S.62,16.38.65,16.37Z" transform="translate(1.54 0.61)"/><path class="cls-2" d="M9.65,4.63l.07-.06-.43-.49a13.75,13.75,0,0,1,2.28-1.49L10.72,1A15,15,0,0,0,7.07,3.6L5.74,2.32a.76.76,0,0,0-.09.09L7,3.7a15,15,0,0,1,3.62-2.64l.84,1.56A13.27,13.27,0,0,0,9.2,4.11Z" transform="translate(1.54 0.61)"/><path class="cls-2" d="M5.71,2.43c.13-.13.21-.25.18-.28s-.16.05-.29.18-.21.26-.18.29S5.58,2.56,5.71,2.43Z" transform="translate(1.54 0.61)"/><path class="cls-2" d="M7.09,3.69c.11-.11.18-.22.15-.25s-.14,0-.26.15-.19.23-.16.26S7,3.81,7.09,3.69Z" transform="translate(1.54 0.61)"/><path class="cls-2" d="M9.71,4.64c.09-.07.14-.15.12-.17s-.11,0-.2.08-.13.14-.11.17S9.63,4.71,9.71,4.64Z" transform="translate(1.54 0.61)"/><path class="cls-2" d="M10.7,1.08c.15-.07.25-.16.23-.2s-.15,0-.3.07-.25.17-.22.2S10.56,1.15,10.7,1.08Z" transform="translate(1.54 0.61)"/><path class="cls-2" d="M11.56,2.68c.12-.07.21-.15.2-.19s-.14,0-.28.06-.21.15-.19.18S11.43,2.74,11.56,2.68Z" transform="translate(1.54 0.61)"/><path class="cls-2" d="M9.31,4.12c.07-.06.11-.12.09-.14S9.32,4,9.25,4s-.12.13-.1.14S9.24,4.17,9.31,4.12Z" transform="translate(1.54 0.61)"/><path class="cls-2" d="M15.84,5.71h.06c0-.21-.08-.43-.11-.64a8.26,8.26,0,0,1,2-.1c0-.6.05-1.2.08-1.81a10.64,10.64,0,0,0-3.45.36l-.51-1.75-.1,0,.54,1.78a10.25,10.25,0,0,1,3.43-.38c0,.58,0,1.16-.07,1.75a7.83,7.83,0,0,0-2,.12C15.75,5.27,15.8,5.49,15.84,5.71Z" transform="translate(1.54 0.61)"/><path class="cls-2" d="M13.88,1.84c.14,0,.24-.1.23-.14s-.13,0-.27,0-.24.11-.24.15S13.74,1.88,13.88,1.84Z" transform="translate(1.54 0.61)"/><path class="cls-2" d="M14.4,3.6c.12,0,.21-.09.2-.13s-.12-.05-.24,0-.2.09-.19.13S14.29,3.63,14.4,3.6Z" transform="translate(1.54 0.61)"/><path class="cls-2" d="M15.88,5.75c.08,0,.13,0,.13-.08s-.08,0-.15,0-.13.06-.13.09S15.8,5.77,15.88,5.75Z" transform="translate(1.54 0.61)"/><path class="cls-2" d="M17.83,3.23c.13,0,.23,0,.24-.06s-.11-.08-.24-.09-.24,0-.24.07S17.69,3.22,17.83,3.23Z" transform="translate(1.54 0.61)"/><path class="cls-2" d="M17.75,5c.1,0,.19,0,.2,0s-.09-.09-.2-.09-.2,0-.2.06S17.64,5,17.75,5Z" transform="translate(1.54 0.61)"/><path class="cls-2" d="M15.78,5.1c.06,0,.11,0,.11-.06s-.06,0-.12,0-.12,0-.11.07S15.72,5.12,15.78,5.1Z" transform="translate(1.54 0.61)"/><path class="cls-2" d="M11.83,17.73l0,0-.53.39a6.48,6.48,0,0,1-1-1.44l-1.74.76a8.85,8.85,0,0,0,2,2.54L9.16,21.2l.07.07c.46-.43.92-.86,1.37-1.3a8.87,8.87,0,0,1-2-2.51l1.68-.75a7.22,7.22,0,0,0,1,1.44Z" transform="translate(1.54 0.61)"/><path class="cls-2" d="M9.25,21.18C9.14,21.08,9,21,9,21.05s0,.13.15.24.24.16.27.13S9.36,21.29,9.25,21.18Z" transform="translate(1.54 0.61)"/><path class="cls-2" d="M10.6,19.91c-.09-.08-.19-.13-.22-.1s0,.12.11.21.21.12.23.1S10.7,20,10.6,19.91Z" transform="translate(1.54 0.61)"/><path class="cls-2" d="M11.85,17.68c0-.05-.11-.08-.14-.06s0,.08,0,.14.11.08.14.06S11.9,17.74,11.85,17.68Z" transform="translate(1.54 0.61)"/><path class="cls-2" d="M8.58,17.35c-.05-.1-.12-.16-.16-.15s0,.11,0,.21.13.16.17.15S8.62,17.45,8.58,17.35Z" transform="translate(1.54 0.61)"/><path class="cls-2" d="M10.33,16.64c0-.08-.1-.13-.14-.11s0,.09,0,.17.11.13.15.11S10.37,16.72,10.33,16.64Z" transform="translate(1.54 0.61)"/><path class="cls-2" d="M11.3,18.07c0-.05-.09-.07-.11-.05s0,.06,0,.11.09.06.11.05S11.34,18.11,11.3,18.07Z" transform="translate(1.54 0.61)"/><path class="cls-2" d="M.92,11.66a.07.07,0,0,1,0-.05l-.29,0A14.42,14.42,0,0,1,1,10.15L.16,10a15.85,15.85,0,0,0-.42,2.16l-.81-.06a.09.09,0,0,0,0,.05l.82.06A16.46,16.46,0,0,1,.16,10l.76.16c-.12.47-.22.94-.3,1.42Z" transform="translate(1.54 0.61)"/><path class="cls-2" d="M-1,12.12c0-.09,0-.15,0-.16s0,.07-.05.15,0,.15,0,.15S-1.06,12.2-1,12.12Z" transform="translate(1.54 0.61)"/><path class="cls-2" d="M-.23,12.18a.28.28,0,0,0,0-.15s0,.07-.06.15,0,.14,0,.14S-.24,12.26-.23,12.18Z" transform="translate(1.54 0.61)"/><path class="cls-2" d="M.94,11.63c0-.05,0-.11,0-.11s0,.05,0,.11,0,.11,0,.11S.93,11.7.94,11.63Z" transform="translate(1.54 0.61)"/><path class="cls-2" d="M.19,10c0-.08,0-.14,0-.15s0,.06-.07.14,0,.14,0,.15S.17,10.1.19,10Z" transform="translate(1.54 0.61)"/><path class="cls-2" d="M1,10.18c0-.07,0-.13,0-.14s0,.05-.06.13,0,.14,0,.14S1,10.26,1,10.18Z" transform="translate(1.54 0.61)"/><path class="cls-2" d="M.66,11.58s0-.08,0-.08,0,0,0,.08,0,.09,0,.09S.65,11.63.66,11.58Z" transform="translate(1.54 0.61)"/><path class="cls-2" d="M4.76,10s0,0,0,0L4.5,9.89c.13-.37.28-.74.44-1.09l-.75-.29a12.71,12.71,0,0,0-.63,1.69L2.77,10a.06.06,0,0,0,0,0l.79.19a17,17,0,0,1,.63-1.68l.73.27c-.16.36-.31.73-.44,1.1Z" transform="translate(1.54 0.61)"/><path class="cls-2" d="M2.79,10c0-.07,0-.12,0-.13s0,0-.07.11,0,.12,0,.13A.24.24,0,0,0,2.79,10Z" transform="translate(1.54 0.61)"/><path class="cls-2" d="M3.58,10.23c0-.07,0-.12,0-.12s0,0-.07.1,0,.12,0,.12S3.57,10.29,3.58,10.23Z" transform="translate(1.54 0.61)"/><path class="cls-2" d="M4.79,10s0-.08,0-.09a.11.11,0,0,0,0,.08s0,.08,0,.09S4.77,10,4.79,10Z" transform="translate(1.54 0.61)"/><path class="cls-2" d="M4.21,8.54s0-.1,0-.11-.05,0-.08.09,0,.12,0,.12S4.19,8.61,4.21,8.54Z" transform="translate(1.54 0.61)"/><path class="cls-2" d="M5,8.83c0-.06,0-.11,0-.12a.18.18,0,0,0-.07.09c0,.06,0,.11,0,.12S4.93,8.89,5,8.83Z" transform="translate(1.54 0.61)"/><path class="cls-2" d="M4.52,9.9s0-.07,0-.07,0,0,0,.06,0,.07,0,.07S4.5,9.94,4.52,9.9Z" transform="translate(1.54 0.61)"/><path class="cls-2" d="M8.09,15v0l-.33,0a7.45,7.45,0,0,1-.09-.95l-.93,0a9.72,9.72,0,0,0,.18,1.51L6,15.81v0L7,15.66a9.48,9.48,0,0,1-.2-1.5l.91-.05a7.81,7.81,0,0,0,.09,1Z" transform="translate(1.54 0.61)"/><path class="cls-2" d="M6.05,15.82c0-.05,0-.1-.06-.09s0,0,0,.11,0,.11.06.1S6.06,15.88,6.05,15.82Z" transform="translate(1.54 0.61)"/><path class="cls-2" d="M7,15.64c0-.05,0-.09-.06-.09s0,0,0,.1,0,.1.06.1S7,15.69,7,15.64Z" transform="translate(1.54 0.61)"/><path class="cls-2" d="M8.12,15s0-.06,0-.06,0,0,0,.07,0,.07,0,.07S8.12,15,8.12,15Z" transform="translate(1.54 0.61)"/><path class="cls-2" d="M6.78,14.14c0-.06,0-.1,0-.1s0,.05,0,.1,0,.1,0,.1S6.78,14.19,6.78,14.14Z" transform="translate(1.54 0.61)"/><path class="cls-2" d="M7.71,14.09c0-.05,0-.09,0-.09s0,0,0,.09,0,.09,0,.09S7.71,14.14,7.71,14.09Z" transform="translate(1.54 0.61)"/><path class="cls-2" d="M7.78,15s0-.06,0-.06,0,0,0,.06,0,.06,0,.06S7.78,15.06,7.78,15Z" transform="translate(1.54 0.61)"/><path class="cls-2" d="M5.87,3.57h0c-.3.32-.58.65-.86,1l-.3-.22a16.42,16.42,0,0,0-2,3.17l.5.21A15.37,15.37,0,0,0,2,11.11H2a15.53,15.53,0,0,1,1.2-3.45l-.51-.21A17.05,17.05,0,0,1,4.67,4.38L5,4.6C5.26,4.24,5.56,3.9,5.87,3.57Z" transform="translate(1.54 0.61)"/><path class="cls-2" d="M2.07,11S2,11,2,11.11s0,.14,0,.14,0-.05.06-.13A.23.23,0,0,0,2.07,11Z" transform="translate(1.54 0.61)"/><path class="cls-2" d="M3.28,7.57s-.06,0-.1.12-.05.14,0,.14.06,0,.09-.11S3.3,7.58,3.28,7.57Z" transform="translate(1.54 0.61)"/><path class="cls-2" d="M5.94,3.49s-.06,0-.11.07-.07.1-.06.11.06,0,.11-.08S6,3.49,5.94,3.49Z" transform="translate(1.54 0.61)"/><path class="cls-2" d="M2.77,7.36s-.06,0-.1.12,0,.14,0,.15.06,0,.1-.12S2.79,7.37,2.77,7.36Z" transform="translate(1.54 0.61)"/><path class="cls-2" d="M4.79,4.22s-.07,0-.12.1-.08.13-.07.14.07,0,.13-.1S4.81,4.23,4.79,4.22Z" transform="translate(1.54 0.61)"/><path class="cls-2" d="M5.05,4.49s0,0-.07.06-.05.08,0,.08,0,0,.07-.06S5.06,4.49,5.05,4.49Z" transform="translate(1.54 0.61)"/><path class="cls-2" d="M8.83,7h0c.2-.24.41-.47.62-.68l.28.24A11.43,11.43,0,0,1,11.69,5l-.3-.45A11.34,11.34,0,0,1,13.82,3.4h0a11,11,0,0,0-2.47,1.19l.3.44A11.31,11.31,0,0,0,9.76,6.57l-.28-.26C9.26,6.55,9,6.78,8.83,7Z" transform="translate(1.54 0.61)"/><path class="cls-2" d="M13.72,3.43s.06,0,.11,0,.1-.05.09-.06-.05,0-.11,0S13.71,3.42,13.72,3.43Z" transform="translate(1.54 0.61)"/><path class="cls-2" d="M11.29,4.63s.07,0,.12,0,.08-.07.07-.09-.06,0-.11,0S11.28,4.61,11.29,4.63Z" transform="translate(1.54 0.61)"/><path class="cls-2" d="M8.79,7.09s.05,0,.08,0S8.92,7,8.9,7s-.05,0-.08,0S8.78,7.08,8.79,7.09Z" transform="translate(1.54 0.61)"/><path class="cls-2" d="M11.6,5.07s.05,0,.1,0,.08-.06.07-.08-.06,0-.11,0S11.59,5.05,11.6,5.07Z" transform="translate(1.54 0.61)"/><path class="cls-2" d="M9.67,6.67s.06,0,.1,0,.05-.08,0-.09-.06,0-.1,0S9.65,6.65,9.67,6.67Z" transform="translate(1.54 0.61)"/><path class="cls-2" d="M9.42,6.39s0,0,.06,0,0-.05,0-.06l-.06,0S9.41,6.39,9.42,6.39Z" transform="translate(1.54 0.61)"/><path class="cls-2" d="M10.31,16.42h0c-.08-.15-.14-.31-.21-.47l.29-.09a6.05,6.05,0,0,1-.33-1.3l-.43.07a6,6,0,0,1,0-1.4h0a6.14,6.14,0,0,0,0,1.42l.43-.06a6.21,6.21,0,0,0,.32,1.25l-.28.1A5,5,0,0,0,10.31,16.42Z" transform="translate(1.54 0.61)"/><path class="cls-2" d="M9.59,13.29s0,0,0-.06,0-.05,0-.05a0,0,0,0,0,0,.05S9.57,13.29,9.59,13.29Z" transform="translate(1.54 0.61)"/><path class="cls-2" d="M9.64,14.69a0,0,0,0,0,0-.06s0-.06,0-.05,0,0,0,.05S9.62,14.69,9.64,14.69Z" transform="translate(1.54 0.61)"/><path class="cls-2" d="M10.33,16.46a0,0,0,0,0,0-.05s0,0,0,0a0,0,0,0,0,0,.05S10.32,16.46,10.33,16.46Z" transform="translate(1.54 0.61)"/><path class="cls-2" d="M10.07,14.62s0,0,0,0,0-.05,0-.05,0,0,0,.05S10.06,14.63,10.07,14.62Z" transform="translate(1.54 0.61)"/><path class="cls-2" d="M10.41,15.91s0,0,0-.07l0,0s0,0,0,.06S10.4,15.91,10.41,15.91Z" transform="translate(1.54 0.61)"/><path class="cls-2" d="M10.13,16a0,0,0,0,0,0,0s0,0,0,0,0,0,0,0A0,0,0,0,0,10.13,16Z" transform="translate(1.54 0.61)"/><path class="cls-2" d="M5.92,19.86h0q-.25-.39-.48-.78L5.73,19a10.33,10.33,0,0,1-.92-2.22l-.42.11A10.37,10.37,0,0,1,4,14.45H4a10.64,10.64,0,0,0,.4,2.42l.42-.1a10.18,10.18,0,0,0,.89,2.15l-.28.13C5.58,19.32,5.74,19.59,5.92,19.86Z" transform="translate(1.54 0.61)"/><path class="cls-2" d="M4,14.55s0-.05,0-.1,0-.09,0-.09,0,0,0,.09S4,14.55,4,14.55Z" transform="translate(1.54 0.61)"/><path class="cls-2" d="M4.41,16.94a.11.11,0,0,0,0-.1c0-.06,0-.1,0-.09s0,.05,0,.1S4.39,16.94,4.41,16.94Z" transform="translate(1.54 0.61)"/><path class="cls-2" d="M6,19.92s0,0,0-.08-.06-.07-.07-.06,0,0,0,.08S6,19.93,6,19.92Z" transform="translate(1.54 0.61)"/><path class="cls-2" d="M4.83,16.83s0,0,0-.1,0-.09-.06-.09a.11.11,0,0,0,0,.1C4.79,16.79,4.82,16.83,4.83,16.83Z" transform="translate(1.54 0.61)"/><path class="cls-2" d="M5.77,19s0-.05,0-.1-.06-.08-.07-.07,0,.05,0,.1S5.75,19,5.77,19Z" transform="translate(1.54 0.61)"/><path class="cls-2" d="M5.48,19.13s0,0,0-.07,0,0,0,0,0,0,0,.07S5.47,19.13,5.48,19.13Z" transform="translate(1.54 0.61)"/><path class="cls-2" d="M8.05,12.38h0c0-.25.11-.5.17-.74l.38.08a8.19,8.19,0,0,1,.77-1.93l-.5-.23a10.51,10.51,0,0,1,1.29-1.84h0A10.06,10.06,0,0,0,8.85,9.59l.5.23a9.05,9.05,0,0,0-.75,1.86l-.37-.08Q8.13,12,8.05,12.38Z" transform="translate(1.54 0.61)"/><path class="cls-2" d="M10.1,7.79s.06,0,.09,0,.05-.08,0-.09-.05,0-.09,0S10.09,7.78,10.1,7.79Z" transform="translate(1.54 0.61)"/><path class="cls-2" d="M8.83,9.64s.05,0,.07-.06,0-.09,0-.09-.05,0-.07.06S8.81,9.64,8.83,9.64Z" transform="translate(1.54 0.61)"/><path class="cls-2" d="M8.05,12.44s0,0,0-.06,0-.07,0-.08,0,0,0,.07S8,12.44,8.05,12.44Z" transform="translate(1.54 0.61)"/><path class="cls-2" d="M9.33,9.87s.05,0,.07-.06,0-.08,0-.09-.05,0-.08.06S9.31,9.86,9.33,9.87Z" transform="translate(1.54 0.61)"/><path class="cls-2" d="M8.58,11.79s0,0,.06-.07,0-.09,0-.09,0,0,0,.07S8.56,11.79,8.58,11.79Z" transform="translate(1.54 0.61)"/><path class="cls-2" d="M8.22,11.68s0,0,0,0,0-.06,0-.06,0,0,0,.05S8.21,11.68,8.22,11.68Z" transform="translate(1.54 0.61)"/><path class="cls-2" d="M12,16.26s0,0,0,0l-.29.14a4.68,4.68,0,0,1-.3-.59l-.85.32a6.16,6.16,0,0,0,.53,1l-.8.44s0,0,0,0l.81-.45a5.51,5.51,0,0,1-.54-1l.82-.31a4.75,4.75,0,0,0,.31.59Z" transform="translate(1.54 0.61)"/><path class="cls-2" d="M10.28,17.52s-.07-.07-.08-.06,0,.05,0,.09.06.06.08.06S10.3,17.55,10.28,17.52Z" transform="translate(1.54 0.61)"/><path class="cls-2" d="M11.07,17.07S11,17,11,17s0,0,0,.08.06.05.08,0S11.09,17.11,11.07,17.07Z" transform="translate(1.54 0.61)"/><path class="cls-2" d="M12,16.24s0,0-.06,0,0,0,0,.06a.09.09,0,0,0,.06,0A.06.06,0,0,0,12,16.24Z" transform="translate(1.54 0.61)"/><path class="cls-2" d="M10.54,16.11s0-.06-.07-.05,0,0,0,.07,0,.06.06.05S10.55,16.14,10.54,16.11Z" transform="translate(1.54 0.61)"/><path class="cls-2" d="M11.39,15.79s-.05,0-.06,0,0,0,0,.07,0,0,.06,0S11.4,15.82,11.39,15.79Z" transform="translate(1.54 0.61)"/><path class="cls-2" d="M11.67,16.38a.05.05,0,0,0,0,0,0,0,0,0,0,0,0s0,0,0,0S11.68,16.4,11.67,16.38Z" transform="translate(1.54 0.61)"/><path class="cls-2" d="M6.75,3.39l0,0a15.4,15.4,0,0,0-4.61,9.29l1.64.1a11.09,11.09,0,0,0,2.74,8.54l-.9.65a16,16,0,0,0,3.5,3l0,0a15.82,15.82,0,0,1-3.38-2.84l.89-.66A11.13,11.13,0,0,1,3.8,12.62L2.17,12.5A15.26,15.26,0,0,1,6.75,3.39Z" transform="translate(1.54 0.61)"/><path class="cls-2" d="M6.43,3.68c.05,0,.21-.07.38-.23s.27-.32.23-.37-.22.06-.38.23S6.39,3.64,6.43,3.68Z" transform="translate(1.54 0.61)"/><path class="cls-2" d="M2.11,12.94c.06,0,.12-.18.14-.41s0-.41,0-.41-.14.17-.16.4S2.05,12.94,2.11,12.94Z" transform="translate(1.54 0.61)"/><path class="cls-2" d="M9.43,25.11s-.13-.18-.33-.31-.39-.21-.42-.17.11.17.32.31S9.4,25.15,9.43,25.11Z" transform="translate(1.54 0.61)"/><path class="cls-2" d="M3.74,13c.06,0,.12-.16.15-.36s0-.36-.07-.37-.13.16-.15.36S3.68,13,3.74,13Z" transform="translate(1.54 0.61)"/><path class="cls-2" d="M6.89,21.7c.05,0,0-.2-.21-.38s-.31-.29-.36-.26,0,.2.19.38S6.84,21.74,6.89,21.7Z" transform="translate(1.54 0.61)"/><path class="cls-2" d="M5.91,22.24s0-.13-.14-.25-.22-.2-.25-.18,0,.13.14.25S5.88,22.27,5.91,22.24Z" transform="translate(1.54 0.61)"/><path class="cls-2" d="M8.8,19.76,6.61,21.34l.06.06,2.17-1.59Z" transform="translate(1.54 0.61)"/><path class="cls-2" d="M8.91,19.71c-.13-.15-.28-.24-.33-.21s0,.19.14.35.3.24.35.21S9,19.87,8.91,19.71Z" transform="translate(1.54 0.61)"/><path class="cls-2" d="M5.67,2.34h0A17.45,17.45,0,0,0,2.38,6.7,16.41,16.41,0,0,0,1.23,8.16a.64.64,0,0,1,0,.07c.37-.52.76-1,1.17-1.49A17.64,17.64,0,0,1,5.67,2.34Z" transform="translate(1.54 0.61)"/><path class="cls-2" d="M12.78,5.24,12.63,5A10.39,10.39,0,0,0,10,7V7a10.55,10.55,0,0,1,2.6-2c.06.09.1.17.15.26Z" transform="translate(1.54 0.61)"/><path class="cls-2" d="M7.05,3.66l0,0A15.52,15.52,0,0,0,4.52,6.8l1.23.65.06-.08L4.6,6.72A15.61,15.61,0,0,1,7.05,3.66Z" transform="translate(1.54 0.61)"/><path class="cls-2" d="M10.12,11.56h0a6.9,6.9,0,0,0-.21.78l1,.17c0,.14-.05.29-.07.43h0c0-.16,0-.32.08-.48l-1-.17A6.05,6.05,0,0,1,10.12,11.56Z" transform="translate(1.54 0.61)"/><path class="cls-2" d="M11,7.93l-.19-.17,0,0,.17.15a9.25,9.25,0,0,0-1.75,2.68l.55.2a.14.14,0,0,0,0-.06l-.51-.19A9.19,9.19,0,0,1,11,7.93Z" transform="translate(1.54 0.61)"/><path class="cls-2" d="M9.29,4.09l0,0A13.49,13.49,0,0,0,7.06,6.33L8,7a11.38,11.38,0,0,0-.8,1.16h0A14.2,14.2,0,0,1,8.1,7l-1-.68A13.85,13.85,0,0,1,9.29,4.09Z" transform="translate(1.54 0.61)"/><path class="cls-2" d="M9.07,7.12,8.89,7l0,0L9,7.16a11,11,0,0,0-1.29,1.9l-.49-.22,0,.05.51.23A11.14,11.14,0,0,1,9.07,7.12Z" transform="translate(1.54 0.61)"/><path class="cls-2" d="M-1.43,13h0c0,.52,0,1,0,1.54l1.19-.06a14.25,14.25,0,0,0,2.58,7.76l0,0A14.2,14.2,0,0,1-.27,14.37l-1.19.06Q-1.47,13.71-1.43,13Z" transform="translate(1.54 0.61)"/><path class="cls-2" d="M5.66,22.8,4.25,23.91a.46.46,0,0,1,.07.07l1.39-1.11a16.9,16.9,0,0,0,3,2.46l.32-.45L9,24.82l-.32.43A16.61,16.61,0,0,1,5.66,22.8Z" transform="translate(1.54 0.61)"/><path class="cls-2" d="M6.92,17.76h0a9.58,9.58,0,0,0,.73,1.28l1-.55a10.67,10.67,0,0,1-.57-1l.45-.19,0-.07-.47.2a8.67,8.67,0,0,0,.56,1L7.6,19A9,9,0,0,1,6.92,17.76Z" transform="translate(1.54 0.61)"/><path class="cls-2" d="M9.52,19.2l-.71.51,0,.05.69-.51c.2.22.41.44.63.65l.11-.09.24.15s0,0,0,0l-.27-.16-.1.08C9.92,19.63,9.71,19.42,9.52,19.2Z" transform="translate(1.54 0.61)"/><path class="cls-2" d="M1.42,16s0,0,0,0a13.3,13.3,0,0,0,.73,2.66L1.35,19l0,.08.8-.27A12.93,12.93,0,0,1,1.42,16Z" transform="translate(1.54 0.61)"/><path class="cls-2" d="M5.1,13.79l-.93,0a.13.13,0,0,0,0,.06l.9,0a8.38,8.38,0,0,0,0,.86s0,0,0,0C5.11,14.4,5.1,14.09,5.1,13.79Z" transform="translate(1.54 0.61)"/><path class="cls-2" d="M11.81,17.71s0,0,0,0a8,8,0,0,0,.84.79l-1,1c-.28-.23-.53-.46-.77-.69h0a9.44,9.44,0,0,0,.81.72l1-1A6.93,6.93,0,0,1,11.81,17.71Z" transform="translate(1.54 0.61)"/><path class="cls-2" d="M12,12l-.31-.09a0,0,0,0,1,0,0L12,12a4.9,4.9,0,0,0-.19,2.6h0A5,5,0,0,1,12,12Z" transform="translate(1.54 0.61)"/><path class="cls-2" d="M15.89,5.7s0,0,0,0c-.22,0-.45.09-.66.15,0,0,0,.06,0,.1a8,8,0,0,0-1.78.7,0,0,0,0,1,0,0,8.09,8.09,0,0,1,1.84-.72.3.3,0,0,0,0-.1C15.5,5.78,15.69,5.73,15.89,5.7Z" transform="translate(1.54 0.61)"/><path class="cls-2" d="M13.14.64,13,.06A14.59,14.59,0,0,0,10.71,1s0,0,0,0A14.57,14.57,0,0,1,12.84.12L13,.65l-.59.21.27.7.1,0c-.08-.23-.17-.46-.26-.68Z" transform="translate(1.54 0.61)"/></g><path class="cls-2" d="M6.14,14.79,3.74,15a10.72,10.72,0,0,0,1.89,5.34L3.55,21.52l.1.15,2.1-1.22a10.88,10.88,0,0,1-2-5.32l2.33-.23A8.76,8.76,0,0,0,7,18l.82-.33a.93.93,0,0,0,0-.1l-.79.31A8.73,8.73,0,0,1,6.14,14.79Z" transform="translate(1.54 0.61)"/><path class="cls-2" d="M3.68,21.55c-.15-.22-.3-.37-.34-.35s0,.22.18.44.32.37.36.34S3.83,21.76,3.68,21.55Z" transform="translate(1.54 0.61)"/><path class="cls-2" d="M5.76,20.36c-.13-.19-.26-.32-.31-.29s0,.19.15.38.27.31.31.28S5.88,20.53,5.76,20.36Z" transform="translate(1.54 0.61)"/><path class="cls-2" d="M7.82,17.57c-.05-.11-.13-.2-.17-.18s0,.12,0,.24.14.2.18.19S7.87,17.69,7.82,17.57Z" transform="translate(1.54 0.61)"/><path class="cls-2" d="M3.84,15.06c0-.2-.06-.35-.12-.35s-.09.17-.07.37.08.36.13.35S3.86,15.26,3.84,15.06Z" transform="translate(1.54 0.61)"/><path class="cls-2" d="M6.23,14.83c0-.16-.06-.29-.12-.28s-.09.14-.07.3.07.3.12.29S6.25,15,6.23,14.83Z" transform="translate(1.54 0.61)"/><path class="cls-2" d="M7,17.86c0-.1-.11-.17-.14-.16s0,.11,0,.21.11.16.14.15S7.05,18,7,17.86Z" transform="translate(1.54 0.61)"/><path class="cls-2" d="M11.27,13.23,8.88,13a6.79,6.79,0,0,0,.36,3.39l-2.3.76a.3.3,0,0,0,0,.1l2.32-.78a6.79,6.79,0,0,1-.39-3.38l2.31.2A5.06,5.06,0,0,0,11.29,15l.87-.18a.09.09,0,0,0,0-.05l-.84.16A5,5,0,0,1,11.27,13.23Z" transform="translate(1.54 0.61)"/><path class="cls-2" d="M7.05,17.17c-.06-.15-.14-.27-.2-.25s0,.16,0,.31.16.27.21.25S7.11,17.33,7.05,17.17Z" transform="translate(1.54 0.61)"/><path class="cls-2" d="M9.35,16.4c0-.11-.12-.2-.17-.18s-.06.12,0,.25.13.2.18.18S9.4,16.52,9.35,16.4Z" transform="translate(1.54 0.61)"/><path class="cls-2" d="M12.22,14.76c0-.06-.05-.1-.09-.09s-.07.06-.06.12.06.11.1.1A.1.1,0,0,0,12.22,14.76Z" transform="translate(1.54 0.61)"/><path class="cls-2" d="M9,13.06c0-.13,0-.23-.07-.23s-.11.08-.12.21,0,.23.06.23S9,13.18,9,13.06Z" transform="translate(1.54 0.61)"/><path class="cls-2" d="M11.35,13.27c0-.09,0-.16-.07-.17s-.11.06-.12.15,0,.17.08.17S11.34,13.36,11.35,13.27Z" transform="translate(1.54 0.61)"/><path class="cls-2" d="M11.37,14.91c0-.06,0-.1-.08-.09s-.06,0,0,.11a.1.1,0,0,0,.09.09S11.37,15,11.37,14.91Z" transform="translate(1.54 0.61)"/><path class="cls-2" d="M8.61,10.22,6.43,9.31A11,11,0,0,0,5.28,14L2.86,14v.15l2.46-.07A11,11,0,0,1,6.41,9.43l2.12.86a9.1,9.1,0,0,0-.79,2.57l.89.09a.19.19,0,0,1,0-.08l-.85-.1A8.94,8.94,0,0,1,8.61,10.22Z" transform="translate(1.54 0.61)"/><path class="cls-2" d="M3,14.11c0-.21,0-.38-.09-.38s-.11.18-.11.39.05.38.1.38S3,14.32,3,14.11Z" transform="translate(1.54 0.61)"/><path class="cls-2" d="M5.39,14.06c0-.18,0-.32-.1-.32s-.1.15-.1.33,0,.31.1.31S5.38,14.24,5.39,14.06Z" transform="translate(1.54 0.61)"/><path class="cls-2" d="M8.7,12.92c0-.11,0-.19,0-.2s-.09.07-.11.18,0,.19.05.19S8.68,13,8.7,12.92Z" transform="translate(1.54 0.61)"/><path class="cls-2" d="M6.5,9.4c.08-.16.11-.3.06-.32s-.16.09-.24.25-.09.31-.05.33S6.42,9.56,6.5,9.4Z" transform="translate(1.54 0.61)"/><path class="cls-2" d="M8.67,10.29c.06-.12.07-.24,0-.26s-.13.06-.2.19-.07.26,0,.27S8.61,10.42,8.67,10.29Z" transform="translate(1.54 0.61)"/><path class="cls-2" d="M7.84,12.79c0-.08,0-.16,0-.16s-.07.06-.09.15,0,.16,0,.17S7.83,12.88,7.84,12.79Z" transform="translate(1.54 0.61)"/><path class="cls-2" d="M8.56,1.25l0,0a16,16,0,0,0-3,2.52l-.75-.65A16.74,16.74,0,0,0,.23,13.32l1.47,0a12.7,12.7,0,0,0,3.84,10l0,0A12.65,12.65,0,0,1,1.75,13.21L.28,13.15A16.67,16.67,0,0,1,4.72,3.24l.75.64A16.6,16.6,0,0,1,8.56,1.25Z" transform="translate(1.54 0.61)"/><path class="cls-2" d="M5.21,23s.08.22.27.42.4.32.43.29-.09-.22-.28-.41S5.25,22.92,5.21,23Z" transform="translate(1.54 0.61)"/><path class="cls-2" d="M1.76,12.92c-.06,0-.12.18-.14.42s0,.41.08.42.1-.19.12-.42S1.81,12.93,1.76,12.92Z" transform="translate(1.54 0.61)"/><path class="cls-2" d="M8.81,1.07s-.18,0-.35.13-.28.24-.26.27.18,0,.35-.14S8.83,1.11,8.81,1.07Z" transform="translate(1.54 0.61)"/><path class="cls-2" d="M.28,12.84c-.05,0-.11.2-.13.45s0,.46.07.46.11-.2.12-.45S.34,12.85.28,12.84Z" transform="translate(1.54 0.61)"/><path class="cls-2" d="M5.14,2.78s-.22.09-.4.28-.29.38-.25.41.21-.1.39-.28S5.17,2.82,5.14,2.78Z" transform="translate(1.54 0.61)"/><path class="cls-2" d="M5.73,3.56s-.13,0-.23.16-.17.22-.14.24.12,0,.23-.16S5.76,3.58,5.73,3.56Z" transform="translate(1.54 0.61)"/><path class="cls-2" d="M12.74,7.34l0,0a8.64,8.64,0,0,0-1.54,1.29c-.24-.22-.49-.43-.74-.64a9.11,9.11,0,0,0-2.5,5.57l1.48,0a6.37,6.37,0,0,0,1.92,5l0,0A6.31,6.31,0,0,1,9.46,13.5L8,13.45A9.06,9.06,0,0,1,10.4,8.06l.75.64A9,9,0,0,1,12.74,7.34Z" transform="translate(1.54 0.61)"/><path class="cls-2" d="M11.18,18.38s0,.14.1.24.22.15.26.11,0-.14-.11-.23S11.22,18.35,11.18,18.38Z" transform="translate(1.54 0.61)"/><path class="cls-2" d="M9.45,13.36s-.1.09-.11.2,0,.22.08.21.1-.09.11-.2S9.51,13.36,9.45,13.36Z" transform="translate(1.54 0.61)"/><path class="cls-2" d="M12.86,7.25s-.11,0-.2,0-.13.13-.11.17.12,0,.2,0S12.89,7.28,12.86,7.25Z" transform="translate(1.54 0.61)"/><path class="cls-2" d="M8,13.28c-.05,0-.1.1-.12.24s0,.25.09.25.1-.11.11-.24S8,13.28,8,13.28Z" transform="translate(1.54 0.61)"/><path class="cls-2" d="M10.62,7.81s-.15,0-.25.12-.14.22-.1.25.15,0,.25-.13S10.66,7.84,10.62,7.81Z" transform="translate(1.54 0.61)"/><path class="cls-2" d="M11.28,8.52s-.09,0-.14.07-.08.12-.06.14.09,0,.15-.07S11.3,8.54,11.28,8.52Z" transform="translate(1.54 0.61)"/><path class="cls-2" d="M16.08,3.33v0a10.82,10.82,0,0,0-2.74.62c-.11-.3-.23-.61-.35-.91A12.46,12.46,0,0,0,6.71,8.29L8,9a9.63,9.63,0,0,0-1.29,6.91h0a9.55,9.55,0,0,1,1.34-7L6.81,8.2a12.44,12.44,0,0,1,6.07-5.11c.12.3.24.6.37.9A10.62,10.62,0,0,1,16.08,3.33Z" transform="translate(1.54 0.61)"/><path class="cls-2" d="M6.65,15.57c-.05,0-.07.15,0,.31s.11.27.16.26.06-.15,0-.3S6.7,15.56,6.65,15.57Z" transform="translate(1.54 0.61)"/><path class="cls-2" d="M8.18,8.71S8,8.78,8,8.91s-.11.28-.07.3S8,9.14,8.11,9,8.23,8.74,8.18,8.71Z" transform="translate(1.54 0.61)"/><path class="cls-2" d="M16.3,3.3s-.12-.07-.27-.06-.26.06-.25.11.12.06.27,0S16.31,3.34,16.3,3.3Z" transform="translate(1.54 0.61)"/><path class="cls-2" d="M6.91,8s-.16.08-.26.24-.13.31-.08.33.16-.09.25-.24S7,8,6.91,8Z" transform="translate(1.54 0.61)"/><path class="cls-2" d="M13.3,2.92s-.18,0-.36,0-.3.16-.28.21.17,0,.35,0S13.32,3,13.3,2.92Z" transform="translate(1.54 0.61)"/><path class="cls-2" d="M13.51,3.86s-.11,0-.21,0-.17.09-.16.12.1,0,.21,0S13.52,3.89,13.51,3.86Z" transform="translate(1.54 0.61)"/><path class="cls-2" d="M15.3,8.56s0,0,0,0a5.82,5.82,0,0,0-1.3.64c-.19-.26-.37-.53-.56-.8A7.11,7.11,0,0,0,10.61,12l1.4.38A4.55,4.55,0,0,0,12.25,16h0a4.47,4.47,0,0,1-.22-3.61L10.67,12a7.08,7.08,0,0,1,2.72-3.52l.57.8A5.82,5.82,0,0,1,15.3,8.56Z" transform="translate(1.54 0.61)"/><path class="cls-2" d="M12.2,15.82s-.06.1,0,.18.12.12.17.1.05-.1,0-.18A.17.17,0,0,0,12.2,15.82Z" transform="translate(1.54 0.61)"/><path class="cls-2" d="M12.08,12.26c-.05,0-.11,0-.14.11s0,.15.05.16.11,0,.14-.11S12.13,12.27,12.08,12.26Z" transform="translate(1.54 0.61)"/><path class="cls-2" d="M15.4,8.51s-.08,0-.15,0-.12.08-.1.12.08.05.15,0S15.41,8.55,15.4,8.51Z" transform="translate(1.54 0.61)"/><path class="cls-2" d="M10.69,11.84s-.12.05-.15.15,0,.18,0,.2.12-.06.15-.15S10.74,11.85,10.69,11.84Z" transform="translate(1.54 0.61)"/><path class="cls-2" d="M13.59,8.29s-.12,0-.21,0-.14.14-.11.18.13,0,.21,0S13.62,8.33,13.59,8.29Z" transform="translate(1.54 0.61)"/><path class="cls-2" d="M14.07,9.13s-.07,0-.12,0-.07.08-.06.1.08,0,.12,0S14.08,9.16,14.07,9.13Z" transform="translate(1.54 0.61)"/><path class="cls-2" d="M21.25,7.51l0,0a9.16,9.16,0,0,0-2.22-1l.24-.93A8.45,8.45,0,0,0,13,6.35l.69,1.23a7.74,7.74,0,0,0-3.4,3.75h0a7.77,7.77,0,0,1,3.46-3.77l-.68-1.24a8.38,8.38,0,0,1,6.12-.72c-.08.31-.15.62-.23.94A8.67,8.67,0,0,1,21.25,7.51Z" transform="translate(1.54 0.61)"/><path class="cls-2" d="M10.34,11.15c-.05,0-.13,0-.17.15s0,.21,0,.22.12,0,.17-.15S10.39,11.17,10.34,11.15Z" transform="translate(1.54 0.61)"/><path class="cls-2" d="M13.85,7.48s-.13,0-.23,0-.17.14-.14.19.13,0,.23,0S13.87,7.53,13.85,7.48Z" transform="translate(1.54 0.61)"/><path class="cls-2" d="M21.43,7.6s-.05-.12-.17-.19-.22-.08-.24,0,.05.11.16.18S21.41,7.63,21.43,7.6Z" transform="translate(1.54 0.61)"/><path class="cls-2" d="M13.19,6.24s-.14,0-.26,0-.21.15-.18.2.15,0,.27,0S13.22,6.28,13.19,6.24Z" transform="translate(1.54 0.61)"/><path class="cls-2" d="M19.55,5.7s-.11-.13-.26-.17-.3,0-.31,0,.11.12.26.15S19.53,5.74,19.55,5.7Z" transform="translate(1.54 0.61)"/><path class="cls-2" d="M19.18,6.58s-.05-.07-.14-.1-.16,0-.16,0,.05.07.13.09S19.18,6.61,19.18,6.58Z" transform="translate(1.54 0.61)"/><path class="cls-2" d="M13.52,4.49v0A8.73,8.73,0,0,0,12.44,5c-.06-.14-.14-.26-.21-.39a11.08,11.08,0,0,0-2.75,2L10,7A11,11,0,0,0,8,9.56h0A10.59,10.59,0,0,1,10,7l-.47-.44A11.25,11.25,0,0,1,12.2,4.6c.07.13.13.26.21.39A11.06,11.06,0,0,1,13.52,4.49Z" transform="translate(1.54 0.61)"/><path class="cls-2" d="M8.11,9.45s-.07,0-.1.1,0,.12,0,.13.07,0,.1-.1S8.13,9.46,8.11,9.45Z" transform="translate(1.54 0.61)"/><path class="cls-2" d="M10.06,6.92s-.08,0-.13.06-.07.1-.06.12.07,0,.12-.06S10.07,6.94,10.06,6.92Z" transform="translate(1.54 0.61)"/><path class="cls-2" d="M13.61,4.45s-.06,0-.12,0-.09,0-.08.07.05,0,.11,0S13.61,4.47,13.61,4.45Z" transform="translate(1.54 0.61)"/><path class="cls-2" d="M9.59,6.48s-.07,0-.13.06-.08.11-.06.13.08,0,.13-.07S9.61,6.49,9.59,6.48Z" transform="translate(1.54 0.61)"/><path class="cls-2" d="M12.36,4.51s-.08,0-.15,0-.11.08-.1.1.08,0,.14,0S12.37,4.53,12.36,4.51Z" transform="translate(1.54 0.61)"/><path class="cls-2" d="M12.51,4.92s0,0-.08,0-.07,0-.06.06,0,0,.08,0S12.52,4.94,12.51,4.92Z" transform="translate(1.54 0.61)"/><path class="cls-2" d="M13.07,8.29a0,0,0,0,0,0,0c.22-.15.44-.29.67-.42l.23.38a6.32,6.32,0,0,1,2-.71l-.12-.62a6.84,6.84,0,0,1,2.47,0v0a6.83,6.83,0,0,0-2.51,0l.12.62A6.8,6.8,0,0,0,14,8.23l-.21-.38A6.46,6.46,0,0,0,13.07,8.29Z" transform="translate(1.54 0.61)"/><path class="cls-2" d="M18.21,6.91s0,0,.1.06.11,0,.11,0,0,0-.1-.06S18.22,6.89,18.21,6.91Z" transform="translate(1.54 0.61)"/><path class="cls-2" d="M15.74,6.94s0,0,.1,0,.09,0,.09-.06,0,0-.1,0S15.74,6.92,15.74,6.94Z" transform="translate(1.54 0.61)"/><path class="cls-2" d="M13,8.34s0,0,.07,0,.06-.05.05-.07-.05,0-.08,0S13,8.32,13,8.34Z" transform="translate(1.54 0.61)"/><path class="cls-2" d="M15.87,7.56s.05,0,.1,0,.08,0,.07,0,0,0-.09,0S15.87,7.54,15.87,7.56Z" transform="translate(1.54 0.61)"/><path class="cls-2" d="M13.9,8.29s.06,0,.09,0,.07-.06.06-.08-.06,0-.1,0S13.89,8.27,13.9,8.29Z" transform="translate(1.54 0.61)"/><path class="cls-2" d="M13.71,7.9s0,0,.06,0,0,0,0-.05,0,0-.07,0S13.7,7.89,13.71,7.9Z" transform="translate(1.54 0.61)"/><path class="cls-2" d="M2.76,18.72h0a12.48,12.48,0,0,1-.7-2.54l.72-.11A12.76,12.76,0,0,1,3.64,9.3L2.65,9A16.18,16.18,0,0,1,7,2.84v0A16.26,16.26,0,0,0,2.58,9.07l1,.32A12.86,12.86,0,0,0,2.77,16l-.72.1A11.81,11.81,0,0,0,2.76,18.72Z" transform="translate(1.54 0.61)"/><path class="cls-2" d="M6.8,3s.14,0,.27-.15.21-.23.19-.25-.15,0-.28.15S6.77,3,6.8,3Z" transform="translate(1.54 0.61)"/><path class="cls-2" d="M2.52,9.26s.12-.1.18-.25.08-.29,0-.31-.12.11-.18.26S2.49,9.25,2.52,9.26Z" transform="translate(1.54 0.61)"/><path class="cls-2" d="M2.85,18.91s0-.12,0-.24-.12-.22-.15-.22,0,.12,0,.25S2.83,18.92,2.85,18.91Z" transform="translate(1.54 0.61)"/><path class="cls-2" d="M3.51,9.57s.11-.1.17-.24.08-.27,0-.28-.11.09-.17.24S3.48,9.56,3.51,9.57Z" transform="translate(1.54 0.61)"/><path class="cls-2" d="M2.85,16.33s0-.14,0-.29-.07-.27-.11-.27-.06.14,0,.29S2.81,16.33,2.85,16.33Z" transform="translate(1.54 0.61)"/><path class="cls-2" d="M2.12,16.34s0-.09,0-.18,0-.19-.07-.18,0,.09,0,.19S2.09,16.35,2.12,16.34Z" transform="translate(1.54 0.61)"/><path class="cls-2" d="M10.21,5.77l.07,0L9.9,5.28a11.31,11.31,0,0,1,2-1.34c-.26-.48-.52-1-.77-1.45A13.56,13.56,0,0,0,7.9,4.85c-.4-.39-.81-.77-1.2-1.16l-.08.08L7.84,4.94A13.61,13.61,0,0,1,11.1,2.57L11.85,4a12.22,12.22,0,0,0-2,1.35Z" transform="translate(1.54 0.61)"/><path class="cls-2" d="M6.67,3.8c.12-.12.19-.23.16-.25s-.14,0-.26.16-.19.23-.16.25S6.55,3.91,6.67,3.8Z" transform="translate(1.54 0.61)"/><path class="cls-2" d="M7.91,4.93c.1-.1.17-.2.14-.23s-.13,0-.24.14-.16.21-.14.23S7.8,5,7.91,4.93Z" transform="translate(1.54 0.61)"/><path class="cls-2" d="M10.27,5.78c.08-.06.13-.13.11-.15s-.1,0-.18.07-.12.13-.1.15S10.2,5.85,10.27,5.78Z" transform="translate(1.54 0.61)"/><path class="cls-2" d="M11.16,2.58c.13-.07.23-.14.21-.18s-.14,0-.27.07-.22.15-.2.18S11,2.65,11.16,2.58Z" transform="translate(1.54 0.61)"/><path class="cls-2" d="M11.93,4c.12-.06.2-.13.18-.16s-.12,0-.24,0-.19.14-.18.17S11.82,4.08,11.93,4Z" transform="translate(1.54 0.61)"/><path class="cls-2" d="M9.91,5.31c.06,0,.1-.1.08-.12s-.07,0-.13.06-.11.11-.09.12S9.85,5.36,9.91,5.31Z" transform="translate(1.54 0.61)"/><path class="cls-2" d="M15.79,6.74h.05c0-.2-.07-.39-.1-.57a7.65,7.65,0,0,1,1.8-.1c0-.54.05-1.08.08-1.62a9.39,9.39,0,0,0-3.11.32c-.15-.53-.31-1-.46-1.58l-.09,0c.16.53.33,1.06.49,1.6a9,9,0,0,1,3.09-.35c0,.52,0,1-.07,1.57a7.68,7.68,0,0,0-1.8.11Z" transform="translate(1.54 0.61)"/><path class="cls-2" d="M14,3.27c.13,0,.22-.09.21-.13s-.12,0-.24,0-.22.1-.21.13S13.9,3.3,14,3.27Z" transform="translate(1.54 0.61)"/><path class="cls-2" d="M14.49,4.85c.11,0,.19-.08.18-.12s-.11,0-.21,0-.19.09-.18.12S14.39,4.88,14.49,4.85Z" transform="translate(1.54 0.61)"/><path class="cls-2" d="M15.82,6.79c.07,0,.12,0,.12-.08s-.07,0-.14,0-.12.05-.11.08S15.75,6.8,15.82,6.79Z" transform="translate(1.54 0.61)"/><path class="cls-2" d="M17.57,4.51c.12,0,.22,0,.22,0s-.09-.08-.21-.09-.22,0-.22.06S17.45,4.51,17.57,4.51Z" transform="translate(1.54 0.61)"/><path class="cls-2" d="M17.51,6.13c.09,0,.17,0,.17,0S17.61,6,17.51,6s-.18,0-.18.06S17.41,6.12,17.51,6.13Z" transform="translate(1.54 0.61)"/><path class="cls-2" d="M15.73,6.2c.06,0,.11,0,.1,0s-.05,0-.11,0-.1,0-.09.06S15.68,6.22,15.73,6.2Z" transform="translate(1.54 0.61)"/><path class="cls-2" d="M12.18,17.57l0,0-.48.35a6,6,0,0,1-.9-1.29l-1.57.68A7.9,7.9,0,0,0,11,19.55L9.77,20.69l.07.06,1.23-1.17a7.75,7.75,0,0,1-1.82-2.26l1.51-.68a5.93,5.93,0,0,0,.92,1.3Z" transform="translate(1.54 0.61)"/><path class="cls-2" d="M9.86,20.67c-.11-.09-.21-.14-.24-.12s0,.12.14.21.21.15.24.12S10,20.77,9.86,20.67Z" transform="translate(1.54 0.61)"/><path class="cls-2" d="M11.07,19.53c-.08-.08-.17-.12-.2-.1s0,.11.11.19.18.12.2.09S11.16,19.61,11.07,19.53Z" transform="translate(1.54 0.61)"/><path class="cls-2" d="M12.19,17.52c0-.05-.09-.07-.12-.05s0,.07,0,.12.1.07.12.05S12.24,17.57,12.19,17.52Z" transform="translate(1.54 0.61)"/><path class="cls-2" d="M9.25,17.22c-.05-.09-.11-.14-.14-.13s0,.1,0,.19.12.14.15.13S9.29,17.31,9.25,17.22Z" transform="translate(1.54 0.61)"/><path class="cls-2" d="M10.83,16.59c0-.08-.09-.12-.13-.1s0,.08,0,.15.09.12.12.1S10.87,16.65,10.83,16.59Z" transform="translate(1.54 0.61)"/><path class="cls-2" d="M11.7,17.87s-.08-.07-.1-.05,0,.06,0,.1.08.06.1,0S11.74,17.91,11.7,17.87Z" transform="translate(1.54 0.61)"/><path class="cls-2" d="M2.36,12.1a.09.09,0,0,1,0,0,2.06,2.06,0,0,1-.26,0,11.72,11.72,0,0,1,.28-1.28l-.71-.14a14.29,14.29,0,0,0-.38,2l-.74-.06v0l.74.05a16.17,16.17,0,0,1,.37-1.94l.69.14c-.11.42-.2.85-.27,1.28Z" transform="translate(1.54 0.61)"/><path class="cls-2" d="M.59,12.52c0-.08,0-.14,0-.14s0,0,0,.13a.38.38,0,0,0,0,.14S.58,12.59.59,12.52Z" transform="translate(1.54 0.61)"/><path class="cls-2" d="M1.33,12.57c0-.07,0-.13,0-.13a.26.26,0,0,0,0,.13c0,.07,0,.13,0,.13S1.32,12.64,1.33,12.57Z" transform="translate(1.54 0.61)"/><path class="cls-2" d="M2.38,12.08c0-.05,0-.1,0-.1s0,0,0,.09,0,.1,0,.1S2.37,12.13,2.38,12.08Z" transform="translate(1.54 0.61)"/><path class="cls-2" d="M1.7,10.63c0-.07,0-.13,0-.13s-.05.05-.07.11,0,.14,0,.14A.3.3,0,0,0,1.7,10.63Z" transform="translate(1.54 0.61)"/><path class="cls-2" d="M2.41,10.77c0-.07,0-.12,0-.12s0,0-.06.11,0,.12,0,.13A.24.24,0,0,0,2.41,10.77Z" transform="translate(1.54 0.61)"/><path class="cls-2" d="M2.12,12s0-.08,0-.08,0,0,0,.08,0,.08,0,.08S2.12,12.08,2.12,12Z" transform="translate(1.54 0.61)"/><path class="cls-2" d="M5.82,10.61v0l-.25-.07c.12-.33.25-.66.4-1l-.67-.25a12,12,0,0,0-.58,1.51L4,10.61l0,0,.72.18A13.91,13.91,0,0,1,5.3,9.31L6,9.56a9.08,9.08,0,0,0-.39,1Z" transform="translate(1.54 0.61)"/><path class="cls-2" d="M4.05,10.64c0-.06,0-.11,0-.11s0,0-.06.1,0,.11,0,.11S4,10.7,4.05,10.64Z" transform="translate(1.54 0.61)"/><path class="cls-2" d="M4.76,10.81c0-.06,0-.1,0-.11s0,0-.06.1,0,.1,0,.11S4.74,10.87,4.76,10.81Z" transform="translate(1.54 0.61)"/><path class="cls-2" d="M5.84,10.6s0-.08,0-.08,0,0,0,.07,0,.08,0,.08S5.83,10.64,5.84,10.6Z" transform="translate(1.54 0.61)"/><path class="cls-2" d="M5.32,9.3c0-.05,0-.1,0-.11s0,0-.07.09,0,.1,0,.11S5.3,9.35,5.32,9.3Z" transform="translate(1.54 0.61)"/><path class="cls-2" d="M6,9.55c0-.05,0-.09,0-.1s0,0-.07.08a.12.12,0,0,0,0,.11S6,9.6,6,9.55Z" transform="translate(1.54 0.61)"/><path class="cls-2" d="M5.6,10.52s0-.06,0-.06,0,0,0,0,0,.06,0,.06S5.59,10.55,5.6,10.52Z" transform="translate(1.54 0.61)"/><path class="cls-2" d="M8.82,15.11a0,0,0,0,1,0,0l-.29.05a8.36,8.36,0,0,1-.09-.86l-.83.05a8.87,8.87,0,0,0,.16,1.35l-.83.17a0,0,0,0,1,0,0l.84-.16a7.9,7.9,0,0,1-.17-1.36l.81,0a6.11,6.11,0,0,0,.09.86Z" transform="translate(1.54 0.61)"/><path class="cls-2" d="M7,15.85s0-.09,0-.09,0,.05,0,.1,0,.1,0,.09S7,15.9,7,15.85Z" transform="translate(1.54 0.61)"/><path class="cls-2" d="M7.8,15.68s0-.08,0-.08,0,.05,0,.09,0,.09,0,.09S7.81,15.73,7.8,15.68Z" transform="translate(1.54 0.61)"/><path class="cls-2" d="M8.84,15.09s0-.06,0-.06,0,0,0,.07,0,.06,0,.06S8.84,15.13,8.84,15.09Z" transform="translate(1.54 0.61)"/><path class="cls-2" d="M7.63,14.33c0-.05,0-.09,0-.09s0,0,0,.1,0,.09,0,.08S7.64,14.38,7.63,14.33Z" transform="translate(1.54 0.61)"/><path class="cls-2" d="M8.47,14.29s0-.09,0-.08,0,0,0,.08,0,.08,0,.08S8.47,14.33,8.47,14.29Z" transform="translate(1.54 0.61)"/><path class="cls-2" d="M8.53,15.13s0-.05,0-.05,0,0,0,.06,0,0,0,0S8.54,15.16,8.53,15.13Z" transform="translate(1.54 0.61)"/><path class="cls-2" d="M6.82,4.82h0c-.27.29-.53.58-.78.89l-.27-.2A15.27,15.27,0,0,0,4,8.36l.45.19a13.51,13.51,0,0,0-1.05,3.06h0a13.26,13.26,0,0,1,1.08-3.1L4,8.32A15.39,15.39,0,0,1,5.74,5.55l.27.2Q6.4,5.27,6.82,4.82Z" transform="translate(1.54 0.61)"/><path class="cls-2" d="M3.39,11.48s0,0-.06.12,0,.13,0,.13,0-.05.06-.11S3.41,11.49,3.39,11.48Z" transform="translate(1.54 0.61)"/><path class="cls-2" d="M4.48,8.42s-.05,0-.09.11,0,.12,0,.13,0,0,.08-.11S4.5,8.43,4.48,8.42Z" transform="translate(1.54 0.61)"/><path class="cls-2" d="M6.88,4.75s-.06,0-.1.06-.06.09,0,.1,0,0,.09-.07S6.89,4.75,6.88,4.75Z" transform="translate(1.54 0.61)"/><path class="cls-2" d="M4,8.23s-.06,0-.09.11,0,.13,0,.14S4,8.43,4,8.36A.2.2,0,0,0,4,8.23Z" transform="translate(1.54 0.61)"/><path class="cls-2" d="M5.85,5.41s-.07,0-.12.09-.07.11-.05.12.06,0,.11-.09S5.86,5.42,5.85,5.41Z" transform="translate(1.54 0.61)"/><path class="cls-2" d="M6.08,5.65s0,0-.07,0,0,.07,0,.08a.15.15,0,0,0,.07-.06S6.09,5.65,6.08,5.65Z" transform="translate(1.54 0.61)"/><path class="cls-2" d="M9.48,7.94h0c.18-.21.37-.41.56-.61l.25.22a10,10,0,0,1,1.75-1.43c-.09-.13-.18-.26-.26-.4a10,10,0,0,1,2.18-1h0a10.34,10.34,0,0,0-2.22,1.07l.27.4a10.39,10.39,0,0,0-1.71,1.39l-.24-.23C9.86,7.5,9.67,7.72,9.48,7.94Z" transform="translate(1.54 0.61)"/><path class="cls-2" d="M13.88,4.7H14s.09,0,.08-.06-.05,0-.1,0S13.87,4.68,13.88,4.7Z" transform="translate(1.54 0.61)"/><path class="cls-2" d="M11.7,5.77s.05,0,.1,0,.07-.07.06-.08,0,0-.1,0S11.69,5.76,11.7,5.77Z" transform="translate(1.54 0.61)"/><path class="cls-2" d="M9.44,8s.05,0,.08,0,0-.07,0-.08,0,0-.07,0S9.43,8,9.44,8Z" transform="translate(1.54 0.61)"/><path class="cls-2" d="M12,6.17s0,0,.1,0,.07-.06,0-.08,0,0-.09,0S12,6.16,12,6.17Z" transform="translate(1.54 0.61)"/><path class="cls-2" d="M10.23,7.61s.06,0,.09,0,0-.08,0-.09,0,0-.09,0S10.22,7.6,10.23,7.61Z" transform="translate(1.54 0.61)"/><path class="cls-2" d="M10,7.36s0,0,.06,0,0,0,0,0,0,0-.05,0S10,7.36,10,7.36Z" transform="translate(1.54 0.61)"/><path class="cls-2" d="M10.81,16.39s0,0,0,0a3.93,3.93,0,0,1-.18-.43l.25-.08a5.33,5.33,0,0,1-.29-1.16l-.39,0a5.22,5.22,0,0,1,0-1.25h0a6,6,0,0,0,0,1.27l.39,0a5,5,0,0,0,.29,1.12l-.26.09A4.17,4.17,0,0,0,10.81,16.39Z" transform="translate(1.54 0.61)"/><path class="cls-2" d="M10.16,13.57s0,0,0-.05,0,0,0,0,0,0,0,0A0,0,0,0,0,10.16,13.57Z" transform="translate(1.54 0.61)"/><path class="cls-2" d="M10.21,14.83a.08.08,0,0,0,0-.06s0,0,0,0,0,0,0,0S10.19,14.83,10.21,14.83Z" transform="translate(1.54 0.61)"/><path class="cls-2" d="M10.83,16.42s0,0,0-.05a.05.05,0,0,0,0,0,0,0,0,0,0,0,.05A.05.05,0,0,0,10.83,16.42Z" transform="translate(1.54 0.61)"/><path class="cls-2" d="M10.6,14.77s0,0,0,0,0-.05,0-.05a.06.06,0,0,0,0,.06S10.58,14.77,10.6,14.77Z" transform="translate(1.54 0.61)"/><path class="cls-2" d="M10.9,15.92s0,0,0-.05,0,0,0,0,0,0,0,.05S10.89,15.93,10.9,15.92Z" transform="translate(1.54 0.61)"/><path class="cls-2" d="M10.65,16s0,0,0,0,0,0,0,0,0,0,0,0Z" transform="translate(1.54 0.61)"/><path class="cls-2" d="M6.86,19.48h0c-.16-.23-.3-.47-.43-.7l.25-.12a8.82,8.82,0,0,1-.83-2l-.38.1a9.94,9.94,0,0,1-.35-2.15h0a9.56,9.56,0,0,0,.36,2.17l.38-.09a9.24,9.24,0,0,0,.8,1.94l-.25.11C6.55,19,6.7,19.24,6.86,19.48Z" transform="translate(1.54 0.61)"/><path class="cls-2" d="M5.13,14.7s0,0,0-.09,0-.08,0-.08,0,0,0,.09S5.12,14.7,5.13,14.7Z" transform="translate(1.54 0.61)"/><path class="cls-2" d="M5.5,16.85s0,0,0-.09,0-.08,0-.08,0,.05,0,.09A.11.11,0,0,0,5.5,16.85Z" transform="translate(1.54 0.61)"/><path class="cls-2" d="M6.9,19.54s0,0,0-.08,0-.06-.06-.05a.26.26,0,0,0,0,.07A.11.11,0,0,0,6.9,19.54Z" transform="translate(1.54 0.61)"/><path class="cls-2" d="M5.88,16.75s0,0,0-.09,0-.08,0-.07,0,0,0,.08S5.87,16.75,5.88,16.75Z" transform="translate(1.54 0.61)"/><path class="cls-2" d="M6.72,18.74s0,0,0-.09,0-.08-.07-.07,0,.05,0,.09S6.71,18.74,6.72,18.74Z" transform="translate(1.54 0.61)"/><path class="cls-2" d="M6.46,18.82s0,0,0-.06,0,0,0,0,0,0,0,.06Z" transform="translate(1.54 0.61)"/><path class="cls-2" d="M8.78,12.75h0c0-.22.09-.45.15-.67l.34.07A8,8,0,0,1,10,10.42l-.44-.2a8.2,8.2,0,0,1,1.15-1.66h0A9.27,9.27,0,0,0,9.5,10.24l.45.2a8.11,8.11,0,0,0-.68,1.68l-.33-.07A5.88,5.88,0,0,0,8.78,12.75Z" transform="translate(1.54 0.61)"/><path class="cls-2" d="M10.62,8.62s.05,0,.08,0,0-.08,0-.09-.05,0-.08,0S10.61,8.61,10.62,8.62Z" transform="translate(1.54 0.61)"/><path class="cls-2" d="M9.48,10.29a.1.1,0,0,0,.07-.06s0-.08,0-.08,0,0-.06,0S9.46,10.28,9.48,10.29Z" transform="translate(1.54 0.61)"/><path class="cls-2" d="M8.78,12.8s0,0,0-.05,0-.07,0-.07,0,0,0,.06S8.76,12.8,8.78,12.8Z" transform="translate(1.54 0.61)"/><path class="cls-2" d="M9.93,10.49s0,0,.06-.05,0-.07,0-.08-.05,0-.07.05S9.91,10.49,9.93,10.49Z" transform="translate(1.54 0.61)"/><path class="cls-2" d="M9.26,12.22s0,0,.05-.07,0-.07,0-.08a.1.1,0,0,0,0,.07S9.23,12.22,9.26,12.22Z" transform="translate(1.54 0.61)"/><path class="cls-2" d="M8.93,12.12s0,0,0,0S9,12,9,12s0,0,0,0S8.92,12.12,8.93,12.12Z" transform="translate(1.54 0.61)"/><path class="cls-2" d="M12.29,16.24v0l-.26.13a3.84,3.84,0,0,1-.28-.53l-.76.29a6.27,6.27,0,0,0,.48.87l-.72.4s0,0,0,0l.72-.41a5.3,5.3,0,0,1-.48-.87l.74-.28a4.63,4.63,0,0,0,.28.54Z" transform="translate(1.54 0.61)"/><path class="cls-2" d="M10.78,17.37s-.06-.05-.07,0,0,0,0,.07.06.06.07.05S10.8,17.41,10.78,17.37Z" transform="translate(1.54 0.61)"/><path class="cls-2" d="M11.49,17s-.05,0-.06,0,0,0,0,.07.05.05.06,0S11.51,17,11.49,17Z" transform="translate(1.54 0.61)"/><path class="cls-2" d="M12.3,16.22a0,0,0,0,0-.05,0s0,0,0,.05,0,0,0,0S12.31,16.24,12.3,16.22Z" transform="translate(1.54 0.61)"/><path class="cls-2" d="M11,16.1s0-.05-.06,0,0,0,0,.07,0,.05.06,0S11,16.14,11,16.1Z" transform="translate(1.54 0.61)"/><path class="cls-2" d="M11.78,15.82s0-.05,0,0,0,0,0,.06,0,.05.06,0S11.79,15.85,11.78,15.82Z" transform="translate(1.54 0.61)"/><path class="cls-2" d="M12,16.35s0,0,0,0,0,0,0,0l0,0S12,16.37,12,16.35Z" transform="translate(1.54 0.61)"/><path class="cls-2" d="M7.61,4.66l0,0A13.79,13.79,0,0,0,3.43,13l1.47.09a10,10,0,0,0,2.48,7.69l-.82.58A14.66,14.66,0,0,0,9.72,24l0,0a14.23,14.23,0,0,1-3-2.56l.8-.59A10,10,0,0,1,5,13l-1.47-.1A13.76,13.76,0,0,1,7.61,4.66Z" transform="translate(1.54 0.61)"/><path class="cls-2" d="M7.32,4.92s.19-.06.34-.21.24-.29.21-.33-.2.06-.35.21S7.29,4.88,7.32,4.92Z" transform="translate(1.54 0.61)"/><path class="cls-2" d="M3.43,13.25s.11-.16.13-.36,0-.37-.05-.37-.12.15-.14.36S3.37,13.25,3.43,13.25Z" transform="translate(1.54 0.61)"/><path class="cls-2" d="M10,24.2s-.11-.15-.3-.27-.35-.19-.37-.16.1.16.28.28S10,24.24,10,24.2Z" transform="translate(1.54 0.61)"/><path class="cls-2" d="M4.9,13.31C5,13.31,5,13.17,5,13s0-.33-.06-.34-.11.14-.13.32S4.85,13.31,4.9,13.31Z" transform="translate(1.54 0.61)"/><path class="cls-2" d="M7.73,21.14s-.05-.19-.18-.34-.29-.27-.33-.24,0,.18.17.35S7.69,21.17,7.73,21.14Z" transform="translate(1.54 0.61)"/><path class="cls-2" d="M6.85,21.63s0-.13-.13-.23-.19-.18-.22-.17,0,.13.13.23S6.82,21.65,6.85,21.63Z" transform="translate(1.54 0.61)"/><path class="cls-2" d="M9.45,19.39l-2,1.42,0,.06,2-1.44S9.46,19.4,9.45,19.39Z" transform="translate(1.54 0.61)"/><path class="cls-2" d="M9.55,19.35c-.12-.13-.25-.22-.3-.19s0,.17.13.31.27.22.32.19S9.67,19.49,9.55,19.35Z" transform="translate(1.54 0.61)"/><path class="cls-2" d="M6.64,3.71h0A16.18,16.18,0,0,0,3.67,7.64,13.66,13.66,0,0,0,2.64,9s0,0,0,0A15.21,15.21,0,0,1,3.68,7.67,15.76,15.76,0,0,1,6.64,3.71Z" transform="translate(1.54 0.61)"/><path class="cls-2" d="M13,6.32l-.14-.25A9.7,9.7,0,0,0,10.5,7.89h0a9.38,9.38,0,0,1,2.35-1.79l.13.23Z" transform="translate(1.54 0.61)"/><path class="cls-2" d="M7.87,4.9a0,0,0,0,0,0,0A14.34,14.34,0,0,0,5.6,7.73l1.11.59a.56.56,0,0,1,0-.08L5.67,7.66A13.9,13.9,0,0,1,7.87,4.9Z" transform="translate(1.54 0.61)"/><path class="cls-2" d="M10.64,12h0a5.6,5.6,0,0,0-.2.7l.94.16c0,.12,0,.26-.07.38h0c0-.15,0-.29.08-.43l-.94-.16Q10.54,12.34,10.64,12Z" transform="translate(1.54 0.61)"/><path class="cls-2" d="M11.38,8.75a1.29,1.29,0,0,0-.17-.16l0,.05.15.13a8.4,8.4,0,0,0-1.57,2.42l.49.17,0,0-.47-.17A8.42,8.42,0,0,1,11.38,8.75Z" transform="translate(1.54 0.61)"/><path class="cls-2" d="M9.89,5.29a0,0,0,0,1,0,0,12.06,12.06,0,0,0-2,2l.87.6A12.2,12.2,0,0,0,8,9h0c.24-.38.49-.75.77-1.11L8,7.25A12.34,12.34,0,0,1,9.89,5.29Z" transform="translate(1.54 0.61)"/><path class="cls-2" d="M9.7,8l-.17-.13,0,0,.15.12A9.44,9.44,0,0,0,8.49,9.77l-.44-.21,0,0,.46.21A10.36,10.36,0,0,1,9.7,8Z" transform="translate(1.54 0.61)"/><path class="cls-2" d="M.25,13.29s0,0,0,0a12.86,12.86,0,0,0,0,1.39c.35,0,.71,0,1.06-.06a12.87,12.87,0,0,0,2.32,7h0a12.75,12.75,0,0,1-2.32-7l-1.07.05C.21,14.16.22,13.73.25,13.29Z" transform="translate(1.54 0.61)"/><path class="cls-2" d="M6.63,22.12l-1.27,1,.06.07c.42-.33.84-.66,1.25-1A15.3,15.3,0,0,0,9.39,24.4l.3-.4L9.61,24c-.09.13-.19.26-.29.38A15,15,0,0,1,6.63,22.12Z" transform="translate(1.54 0.61)"/><path class="cls-2" d="M7.76,17.59h0a8.48,8.48,0,0,0,.67,1.16l.88-.51a8.44,8.44,0,0,1-.51-.86l.4-.17,0-.07-.42.18a6.3,6.3,0,0,0,.5.87l-.85.47A8.27,8.27,0,0,1,7.76,17.59Z" transform="translate(1.54 0.61)"/><path class="cls-2" d="M10.1,18.88l-.64.47,0,0,.62-.45c.18.19.37.39.57.57l.09-.08.22.14s0,0,0,0l-.24-.15-.09.08C10.46,19.27,10.27,19.08,10.1,18.88Z" transform="translate(1.54 0.61)"/><path class="cls-2" d="M2.81,16.05h0a11.55,11.55,0,0,0,.65,2.4l-.7.24,0,.07.71-.24A12.45,12.45,0,0,1,2.81,16.05Z" transform="translate(1.54 0.61)"/><path class="cls-2" d="M6.13,14H5.29v.06l.82,0q0,.39,0,.78h0A7.48,7.48,0,0,1,6.13,14Z" transform="translate(1.54 0.61)"/><path class="cls-2" d="M12.16,17.55h0a6.5,6.5,0,0,0,.76.71l-.85.9a7.18,7.18,0,0,1-.7-.62h0a6.62,6.62,0,0,0,.73.65l.87-.93A7,7,0,0,1,12.16,17.55Z" transform="translate(1.54 0.61)"/><path class="cls-2" d="M12.33,12.42l-.28-.08v0l.26.08a4.33,4.33,0,0,0-.17,2.34h0A4.37,4.37,0,0,1,12.33,12.42Z" transform="translate(1.54 0.61)"/><path class="cls-2" d="M15.84,6.74v0l-.59.13a.29.29,0,0,0,0,.09,7.43,7.43,0,0,0-1.6.64v0a7.36,7.36,0,0,1,1.65-.65.29.29,0,0,0,0-.09Z" transform="translate(1.54 0.61)"/><path class="cls-2" d="M13.36,2.19c-.06-.17-.12-.35-.17-.53a13.15,13.15,0,0,0-2,.82s0,0,0,0a12.83,12.83,0,0,1,1.91-.8c.05.17.11.33.16.48l-.53.19L13,3l.09,0c-.08-.2-.15-.4-.23-.61Z" transform="translate(1.54 0.61)"/></svg>